<?xml version="1.0" encoding="UTF-8"?>
<svg id="Shade-Blue" xmlns="http://www.w3.org/2000/svg" version="1.1" viewBox="0 0 331 228">
  <defs>
    <style>
      .st0 { fill: #ecae95; }
      .st1 { fill: #d48656; }
      .st2 { fill: #9c9c9b; }
      .st3 { fill: #b6daff; }
      .st4 { fill: #0a67b8; }
      .st5 { fill: #c4c5c5; }
      .st6 { fill: #6ebaff; }
      .st7 { fill: #fff; }
      .st8 { fill: #2d79c0; }
      .st9 { fill: #f9bc8d; }
      .st10 { fill: #f5a521; }
      .st11 { fill: #dd886e; }
      .st12 { fill: #ea7332; }
      .st13 { fill: #122f36; }
      .st14 { fill: #ffbe96; }
      .st15 { fill: #ffbf00; }
      .st16 { fill: #f66d24; }
      .st17 { fill: #e0eeff; }
    </style>
  </defs>
  <path class="st17" d="M38.2,172.2c-18.7-35.6-.8-85.7,27.2-119.8C92.9,18.6,130.3.4,167.6,0,205.3,0,243.1,18.2,268.2,50.8c25.6,33,38.6,80.4,19.5,116.4-18.7,35.6-69.4,59.2-122.6,60.3-52.8,1.5-108.3-19.7-127-55.4Z"/>
  <g>
    <rect class="st9" x="233.4" y="103.9" width="91.3" height="91.3" transform="translate(16 -26.6) rotate(5.6)"/>
    <rect class="st1" x="274.2" y="104" width="16.3" height="22.7" transform="translate(12.7 -27.1) rotate(5.6)"/>
    <rect class="st1" x="307.2" y="172.8" width="7.4" height="15.3" transform="translate(19.2 -29.6) rotate(5.6)"/>
    <path class="st1" d="M267.1,184.7l-24.4-2.4,1.8-18,24.4,2.4-1.8,18ZM244.7,180.7l20.8,2,1.4-14.4-20.8-2-1.4,14.4Z"/>
    <rect class="st1" x="278.2" y="103.3" width="1.8" height="91.3" transform="translate(103.5 412.1) rotate(-84.4)"/>
  </g>
  <path class="st3" d="M84.4,51.6c1.6,2.5,4,14,6.2,14.9l9.9,2.5,12-9.9,10.4,5.7-2.9,15.3,7.4,7.6,16.3-2.1,5.1,9.7c0,2.8-8.6,9.4-9.3,12.1s2.3,10.7,3.5,11.4c2.2,1.3,12.8,3.6,13.7,5.1.1,3,1.5,10.6-1.1,12.1s-9.7,2.7-12.6,4.4c-1.2.7-3.9,10-3.5,11.4.7,2.8,9.3,9.3,9.3,12.1l-5.1,9.7-15.8-2.3-7.7,7.5,2.8,15.7-10.4,5.7-12-9.9-9.9,2.5c-2.2.9-4.6,12.4-6.2,14.9-2.3-.1-11,.8-12.2-.5-1.8-2.2-3.6-13.4-5.8-14.4l-10.3-2.3-11.7,9.6c-2-.6-10.2-4.8-10.3-6.4l2.5-14.5-7.1-7.8-16.1,2.3-5.7-10.2,9.9-11.6-2.4-10.4-14.8-6.1c-.2-2.6-1.2-10.5.7-11.9s10.3-2.9,13.1-4.6,2.6-9.1,3.5-11.4l-9.9-11.6,5.7-10.2,15.8,2.4c.8-2.7,6.2-5.5,7-7,1.6-2.6-2.3-12.2-2.2-15.5s8.3-5.8,10.3-6.4l11.7,9.6,10.3-2.3,6.1-14.7,11.9-.2ZM47.6,161.5c25.5,24.8,68.9,10.2,74.6-24.7,6.2-38-36.3-65.4-68.5-43.9-23.2,15.5-26.2,49.2-6.1,68.7Z"/>
  <path class="st7" d="M253.1,55.6c2,1.1,1.2,4.2-1.1,4.1-10.3,0-51.5-.4-62.6,0-12.7.5-21.8-1-22.8-5.1-1-4.1,7.6-4.1,7.6-4.1,0,0,.4-13.6,18.8-13.8,17.8-.2,21.8,13.8,21.8,13.8,0,0,1.5-7.2,12.3-7.1,10.1,0,13.2,10.2,13.2,10.2,7.2,0,11,.9,13,1.9h0Z"/>
  <g>
    <path class="st10" d="M172.9,2.7c2.5.2,3.7,1.9,5.4,3.6-3.9-2.1-8-2.5-12-.6-9.8,4.6-10.3,19.1-12.4,28.3,6.9,0,13.7,1.6,20.5,2.6s17.7,3.2,22.8,6.3,2.1,1.6,2.2,1.8c1.1,1.3.8,2.2.2,3.6-1.3-1.8-3.1-2.4-5.1-3.3-3.8-1.7-13.3-5.2-17.2-5.6s-9.9.7-14.1.9c-9,.3-18.5-.7-27.7-.6s-2.3-.1-3.3,0v-.3c-.1,0-.3.3-.3.3,0,0,0,.2,0,.3-3.3-.2-6.5.2-9.7.6v-1.2c.2,0,.4,0,.4,0l.3-.3c.6-.3,1.2-.4,1.5-.6l.3-.3c0,0,.2,0,.3,0l.3-.3c.9-.5,3-1.5,3.3-2.4,2.2-.4,4.3-1.2,6.6-1.2.8-7.6,2.5-15.2,5.1-22.4,1.2-1.2,2.2-2.5,3.6-3.6l.3-.3c.5-.4,1.2-.6,1.8-.9l.3-.3c.3-.1.6-.5.9-.6,2.7-.8,7.8-.6,10.3.8s1.4,1.7,2.3,1.6,2.4-2.2,3.2-2.8c2.8-2.2,6.5-3.5,10.1-3.2Z"/>
    <path class="st12" d="M122.2,39.4v1.2c3.1-.4,6.3-.8,9.5-.6-.1,1-.3,3-.3,3.9-2-.5-4-1.7-6-2.2s-4.3-.6-4.5-.7c-.6-.7.8-1.3,1.2-1.5Z"/>
    <path class="st12" d="M199.4,48.4c-1.1,2.2-2.8,2.4-5.1,3,.1-2-.1-4.2,0-6.3,1.9.9,3.8,1.5,5.1,3.3Z"/>
    <path class="st12" d="M143.4,102.7l-8.6,17.5c0,.4-.2.9.4.7,1.7-.5,3.9-3.4,5.8-3.9,0,4.3-.9,8.7-1.2,13-.6,8.5-.3,16.9,1.3,25.3.7,3.8,1.8,7.5,2.6,11.3-3.3-.9-6.3-1.1-9.7-2.7s-.9-.2-.8-.8c1.4.2,9,3.5,9.5,3-.8-3.8-2-7.5-2.6-11.3-2-12-1.4-23.9,0-35.9-.3-.4-4.2,3.1-5,3.2-2.2.5-1.3-2.4-.8-3.5,1.6-4.2,5-9.1,7-13.3s.4-.6.3-1.1c-1.6.3-3.2.8-4.8,1.2-.3-.5,1.6-1.3,2.1-1.5,1.3-.5,3.1-.6,4.5-1.2Z"/>
    <path class="st12" d="M215.5,109.2c.6.4,1.7.4,1.5,1.2-.6.1-3.8,2.4-4.3,3-11,10.7-18.6,49.5-14.5,63.8.5,1.8,1.6,4.2,3.1,5.4-.1,1.3,0,3,0,4.3s.8,2.5-.5,2.8-4.1-2.7-5.2-3.3c-3.8-2.2-6.5-2.2-10.7-1.7,0-.7.4-.8.9-1,2.4-.8,8,.6,10.2,1.9s4.4,3.5,4.6,3.3c.3-1.2-.8-2-.9-3.2s.3-1.6.2-2.5c-.4-3.3-3.4-6.3-3.4-10.6-.3-17.7,2.7-38.8,11.6-54.1s2.7-4.8,5.3-6.6,3.1-.7,2.2-2.7Z"/>
    <path class="st11" d="M98,189.8c.3,0,.5,0,.8.3l1.9,2c-.1.8-2.3,2-3,2.2s-.2,0-.3,0c-1.2.3-2.9.4-4.2.3s-.2,0-.3,0c-.3,0-1-.5-1.2-.9-.5-1-.8-2.8-.9-3.9,1.1.2,3.3.6,4.3.6s2.1-.6,2.8-.6Z"/>
    <path class="st11" d="M133.2,193.1l-18.5-.2c-.6.4-.2,6.8-.3,8.1,0,2-.2,5.6-1.2,6.7l.6-15.2c3.6.3,9-.4,13-.3s2.3.4,3.6.3.8.2.7-.9c.7.4,1.6.8,2.1,1.5Z"/>
    <path class="st13" d="M165.1,40.9c6.7.9,13.8,1.9,20.3,4,4.2,1.4,4.3,2.4,5.9,6.3s1.2,3.4,2.2,5.1,2.2,6.8,3.1,9c3.6,9,12.4,25.2,10.2,34.6s-1.4,3.1-1.7,4.8c-4.7-1.7-11.8-4.2-16.7-4.5s-6.6.4-7.8-.4-1.1-4-1.3-5.2-.4-1-.5-1.2c-.5-3.6-.8-8.7-.9-12.4s.4-8.5.3-12.7c.8,0,1.4.5,2.2.6s1.2-.2,1.6-.3,1-.1,1.5-.3c0,0,0,.4,0,.5-1.2,1.2-4.4.2-4.7.7,0,3.9-.5,7.8-.3,11.8s.9,9.8,1.8,14.6-.6,2.7,1.6,3.5,5.8-1.7,7.1-4c3.1-5.6,2.5-17.3,2-23.6-.2-3.2-.9-6.5-1.2-9.7-.6-.6-1.8,2.5-1.9,2.7-1.3,1.8-2.2,2.9-4.3,3.6,3.8-3.3,8.6-10.6,5.3-15.6s-7.3-.5-8.9,2.4-1.2,4.1-1.8,5.2-1.1,0-1.2-.6c-.3-1.4,0-3.4-.4-5-.8-4.7-2-4.5-5.3-7.2s-2.1-2.4-3-2.8l-3.3-3.9Z"/>
    <path class="st13" d="M223.6,116.4c-1.7-.6-3.7-4.1-5.7-3.4s-3.5,2.7-4.3,3.8c-9.5,11.3-15.6,42.9-13.3,57.3.3,1.9,1.4,4.1,1.5,5.7s-.5,2.2-.6,3c-1.5-1.2-2.5-3.6-3.1-5.4-4.1-14.3,3.6-53.1,14.5-63.8s3.7-2.8,4.3-3c3.9-.8,5.9,2.7,6.6,6Z"/>
    <path class="st13" d="M144,197l-4.2,31c-1.6,0-3.2,0-4.8,0l3.9-31.9c1.1.3,3.9.8,5.1.9Z"/>
    <path class="st13" d="M141.9,85.7l.9,3.2c0,2.1,0,10.1,2.4,10.7s2.4-4.5,4.8-3.8v.3c-.4,0-1.8,1.7-2.2,2.1-1.2,1.2-2.9,3.8-4.3,4.5s-3.2.7-4.5,1.2c-3.7-2.8-3.3-7.5-2.5-11.6s2.4-7.5,2.5-10.4c1.4.6,2,2.6,3,3.9Z"/>
    <path class="st13" d="M117.7,112.8c-3.5,6.2-4.8,13.2-5.1,20.3-.3-.4-2.2-3.2-2.4-3.3.4-2.2.5-4.4.9-6.6s0-.2,0-.3l.3-.3c.8-3.5,1.7-7.5,5-9.5s1.1-.2,1.3-.3Z"/>
    <path class="st13" d="M135.3,39.7c-.7,1.1-.9,2.3-1.2,3.6-.8,3.4-.8,4.9-.6,8.4-.7-.6-.9-1.5-1.1-2.3-.4-1.4-.9-4.1-1-5.4s.2-2.9.3-3.9,0-.2,0-.3c0,0,.2,0,.3,0,1-.1,2.2,0,3.3,0Z"/>
    <path class="st6" d="M143.7,117.9c-.1,1-.2,2-.3,3s-.3.8-.3,1.2,0,.8,0,1.2c0,.7-.2,1.4-.3,2.1s0,.8,0,1.2c0,.9-.2,1.8-.3,2.7s0,1,0,1.5c0,.8-.6,1.9,0,2.4-.2,1.1-.2,1.8-.3,3,0,1.8,0,3.8,0,5.7s0,.8,0,1.2c0,1,.2,2,.3,3s0,.8,0,1.2c.1,1.3.3,2.6.6,3.9,0,.3,0,.6,0,.9,0,.7.5,1.9.6,2.7,0,.2,0,.4,0,.6.1,2.3,1.6,6.1,2.1,8.5.4.3.8-1,.9-1.2.4-1.1.6-2.3.9-3.4s0-.2,0-.3l.3-.6c0,0,0-.2,0-.3,1-1.1,1.3-3.1,1.8-4.5s0-.2,0-.3c1.1-1.5,2.3-3.9,2.7-5.7s0-.2,0-.3l.6-.9c.4-.3.2-.7.3-.9l.3-.3c0,0,0-.2,0-.3l.3-.6c0,0,0-.2,0-.3l15.8-25.7c0,0,.2,0,.3,0,1.6.3,1.4,1.5,1.8,2.1-10,14.7-19.7,30.2-23.9,47.7-.9-.5-3.1-1.2-4.2-1.5-.8-3.8-1.9-7.5-2.6-11.3-1.5-8.4-1.9-16.7-1.3-25.3.3-4.3,1.2-8.6,1.2-13,.6-1,1.9-1.4,2.7-2.1.7.8.1,2.1,0,3Z"/>
    <path class="st13" d="M161,198.5c0,0,.3.3.2.5-.2,1-2.9,3.3-4.1,3.4,0,0-.5,0-.7-.3-.7-1.1-.4-3.8-.2-5.1,1.6.3,3.2.9,4.8,1.5Z"/>
    <path class="st13" d="M149.9,89.5v6.3c-2.3-.7-3.1,4.2-4.8,3.8-2.5-.7-2.5-8.6-2.4-10.7l-.9-3.2c2.1,2.7,4.6,4,8.1,3.9Z"/>
    <path class="st13" d="M183.6,68.4c2.1-.7,3-1.8,4.3-3.6s1.4-3.3,1.9-2.7c.3,3.2.9,6.5,1.2,9.7.5,6.3,1,18-2,23.6s-4.3,5-7.1,4-1.3-1.9-1.6-3.5c-.8-4.9-1.6-9.6-1.8-14.6s.4-7.8.3-11.8c.3-.5,3.5.5,4.7-.7s0-.5,0-.5Z"/>
    <path class="st2" d="M194.4,45.1c-.1,2.1.1,4.2,0,6.3s-.7,3.5-.9,5.1c-1-1.8-1.3-3.1-2.2-5.1-1.6-4-1.7-4.9-5.9-6.3-6.4-2.2-13.6-3.1-20.3-4s-1.4-.2-2.1-.3v-.3c4.2-.1,10.1-1.3,14.1-.9s13.4,3.9,17.2,5.6Z"/>
    <path class="st2" d="M132.3,168c-3.4-.4-10.9-.8-14,.3s-.4.2-.6.3-.7.2-.9.5c-.6,1-.3,2,.9,2.2,0,.4.2.8.6.9,5.4.4,10.4,1.6,15.6,2.8s.8.5.8.5v.6c-5.2-.2-10.4-1.5-15.7-1.8s-3.6-.3-4.6.6v.3c-2.1.1-1.4,2.3,0,3.3s.3.4.6.5.6,0,.9.1c0,.2,0,.4,0,.6-.3,1-.5,1.5.4,2.4s4.1,2,5.2,2.4c.1.2.2.4.3.6,1.2,1.7,4.7,3.9,6.6,5.1s1,.6,1.5.9.8.4,1.2.6c0,1,.2.8-.7.9-1.3.1-2.3-.3-3.6-.3-4,0-9.4.6-13,.3s-.6-.6-1.3-.6c-2.7,0-8.4-.4-10.7,0s-2.5,2.7-4,2.4c.7-.2,2.9-1.5,3-2.2l-1.9-2c-.2-.2-.5-.3-.8-.3-.3-2.3-2.6-3.8-3.3-6,.4-.1.7.3.6-.6,1.9-.3,3.6-.3,5.7-.9s.9-.1,1.3-.3.2-.6.2-.6c0-.1.9.2.6-1.2.5,0,2.8-1.1,2.9-1.7.4-1.3,0-2.9-1.4-3.1-4.7-.3-10.4-2.1-14.9-2.4v-.6c3.4,0,6.9.9,10.4.9s.2.3.6.2.6-.6.9-.8.8-.2.8-.3c.2-.4,0-2.1-.1-2.6s-.6-.3-.7-.4c-.4-.3-.2-.3-.9-.6-4.5-1.7-10.8-1.9-15.6-2.7-.5-.1-1-.9-.8-1.4,2.2.2,7.7,1.4,7.8-1.9s-.4-1.3-1.2-1.6-.3-.2-.9-.3c-2.5-1.4-5.4-1.5-8.2-1.5s-.9-.3-1-.3c-2.5-4.5-5.4-8.8-8.2-13.2s-2.7-4.1-4-6.1-4.6-6.9-4.8-8.1.2-.6.2-1h42.5c3.1.3,5.3,4.6,6.9,7.1,5.7,8.4,11.5,17.6,16.7,26.3s1.5,2.6,2.1,4Z"/>
    <path class="st5" d="M108.2,128.9c.4.6,1.9.8,2.1.9s2.1,2.8,2.4,3.3c3.5,4.9,7.7,14.4,11.6,18.2,1.6,3.7,4.6,6.8,6.3,10.4s.2.2.3.3c.2.3.8.7.9.9.5.8,1.8,2.8,2.2,3.6,1.3,2.6,0,1.7-1.6,1.5-.6-1.3-1.4-2.7-2.1-4-5.3-8.7-11.1-17.9-16.7-26.3s-3.8-6.8-6.9-7.1h-42.5c.3-1.2.6-1.6,1.9-1.8h42.2Z"/>
    <path class="st15" d="M178.3,6.3c11.8,6.3,16.2,16.6,17.6,29.4,0,.8-.1,1.7,0,2.4s1,1.1,1.2,2.1,0,1.9,0,2.8c-5.1-3.1-16.8-5.4-22.8-6.3s-13.6-2.7-20.5-2.6c2.1-9.2,2.6-23.7,12.4-28.3s8.1-1.5,12,.6Z"/>
    <path class="st15" d="M146.9,6.3C151.8-.2,163.6.2,170.7,1.7c.5.1,2.4.2,2.1,1-3.6-.3-7.3.9-10.1,3.2s-2.5,2.8-3.2,2.8-1.5-1.1-2.3-1.6c-2.5-1.5-7.6-1.6-10.3-.8Z"/>
    <path class="st15" d="M140.1,12c-2.6,7.2-4.2,14.8-5.1,22.4-2.3,0-4.4.8-6.6,1.2.3-.8.1-2.3.4-3.1s1.1-.8,1.5-1.5c.6-1.2,1-4.1,1.5-5.7,2-6,4-8.9,8.3-13.4Z"/>
    <path class="st14" d="M161,43.3c2,.3,5.8.7,7.5,1.5s2.1,2.1,3,2.8c3.3,2.7,4.5,2.5,5.3,7.2s.1,3.6.4,5,.8,1.2,1.2.6c.6-1.1,1.1-3.8,1.8-5.2,1.5-2.9,6.4-6.2,8.9-2.4s-1.5,12.3-5.3,15.6c-.5.2-1,.2-1.5.3-1-.5-2.3-.3-2.8-1.5s.3-2-.8-1.8c-.1,2.3-1,4.9-1.8,7.2-.8.7-1,2.3-1.6,3.2-4.2,6.8-17.1,13.4-25,13.8s-.2,0-.3,0c-3.4,0-6-1.2-8.1-3.9s-1.6-3.3-3-3.9c0-1.8-2.8-6.9-3.6-9.1-2.7-7.6-1.4-13.3-1.8-21s-.2-4.9.6-8.4c8.9-1.8,17.9-1.4,26.8,0Z"/>
    <path class="st16" d="M205.1,104.8c3.2,1.2,7.5,2.8,10.4,4.5.9,2-1.2,2-2.2,2.7-2.6,1.8-3.7,4-5.3,6.6-8.9,15.2-11.9,36.4-11.6,54.1,0,4.3,3,7.3,3.4,10.6s-.3,1.6-.2,2.5,1.2,1.9.9,3.2c-.2.2-4.1-3-4.6-3.3-2.2-1.3-7.9-2.7-10.2-1.9s-1,.3-.9,1c-1.5.2-2.2.8-4.2.6s-.4,0-.6,0-.2-.3-.3-.3c-.3,0-.9-.2-1.2-.3s-.3-.2-.6-.3-.2,0-.3,0-.2-.3-.9-.6-.4,0-.6,0,0-.2-.3-.3-.4,0-.6,0,0-.4-.9-.6-.8,0-.9,0c-.3-.2.5-.2-.6-.6s-1.4-.4-2.4-.6c0-.1-.2-.3-.3-.3s-.2,0-.3,0c0-1.1-2.7-1.9-3.5-2s-.6.2-.7.2c-7-.7-12.2-8.6-17.9-11.6,4.2-17.5,13.9-33,23.9-47.7,0,0,1.2.5,1.6.9,1,.9,3.2,3.9,4.5,2.7l10.6-23.6c4.9.3,12,2.8,16.7,4.5Z"/>
    <path class="st16" d="M136.8,105.4c1.6-.4,3.2-.9,4.8-1.2.1.4-.1.7-.3,1.1-2,4.1-5.4,9.1-7,13.3s-1.4,4,.8,3.5,4.7-3.6,5-3.2c-1.3,12-2,23.9,0,35.9s1.8,7.5,2.6,11.3c-.5.5-8.1-2.7-9.5-3s-.6,0-.9,0l-7-11c-.1-.5-.9-.5-1-.6-4-3.8-8.2-13.3-11.6-18.2.3-7.1,1.6-14.1,5.1-20.3,6.1-3.5,12.3-5.8,19.1-7.5Z"/>
    <path class="st15" d="M178.3,6.3c11.8,6.3,16.2,16.6,17.6,29.4,0,.8-.1,1.7,0,2.4s1,1.1,1.2,2.1,0,1.9,0,2.8c-5.1-3.1-16.8-5.4-22.8-6.3s-13.6-2.7-20.5-2.6c2.1-9.2,2.6-23.7,12.4-28.3s8.1-1.5,12,.6Z"/>
    <path class="st6" d="M223.6,116.4c11,11.9,10.7,49.3,12.2,65.5,1,10.8,4.3,21.3.6,31.9s-17.1,13.6-29.2,11.2-19.7-5.4-28.3-9.5c-.8-1.5-2.5-2.1-3.6-3.4-2.7-3.2-1.3-2.6.6-4.5,5.6-5.6,8.2-13.8,6.3-21.6,5.2-.8,8.9-1.3,13.5,1.5s5.2,4.6,6.3,2.3,0-8.1.1-10.1c1.6-10.6,7.9-23.5,8.6-33.9s-.1-2.6-1.4-1.8-7.7,24.4-7.9,27.7l-1.1,2.4c-2.3-14.4,3.8-45.9,13.3-57.3.8-1,3.2-3.3,4.3-3.8,1.9-.7,3.9,2.8,5.7,3.4ZM229.6,198.8c.7-.8-2.6-3.8-3.3-4.3-3.5-2.8-8.7-5.1-13.1-6s-9.4-1.7-9.9.6c.1,1.1,1.5.6,2.4.9,3.9,1,9.4,4.2,12.5,6.9s5.4,5.8,6.2,6.1.5,0,.7,0c-1.5-4.7-6-8-9.5-11.3,3.8.6,7.4,2.7,10.5,4.8s3.1,2.7,3.5,2.3Z"/>
    <path class="st6" d="M88.2,209.8c-1.8-3.2-3.3-6-3.6-9.7s.2-8.1,1.8-9.9,1.9,1.5,2.4,2.4c2.2,3.6,7.1,3.9,10.6,2s2-1.6,2.4-1.7c.8-.2,1.2.2,1.4.2h9.7c.8,4.9-.1,9.9-.6,14.8s-.2,1.3.3,1.6c0,.3,0,.6,0,.9-1.3-.2-.3.8-.3,1.2s0,.6,0,.9c-1.2-.1-.3.8-.3,1.2s0,.4,0,.6c-1.1.4-.3,1.1-.3,1.2,0,.3,0,.6,0,.9l-1.2,1.9-4.5,2c-.2,0-.4,0-.6,0-1.6-.6-3.3-.6-5-1.1-3.4-1-5.4-3-8.1-5l-3.9-3.7c-.1-.2-.2-.4-.3-.6Z"/>
    <path class="st6" d="M169.9,181.4c0,0,.2,0,.3,0,0,.1.2.3.3.3,1,.2,1.5.3,2.4.6,0,.6,0,.7.6.6,0,0,.7,0,.9,0-.1.8.2.6.9.6.2,0,.4,0,.6,0l.3.3c.1,0,.4,0,.6,0-.1.8.2.6.9.6,0,0,.2,0,.3,0l.6.3c.3,0,.9.2,1.2.3l.3.3c.2,0,.4,0,.6,0-.2.6.5.5.6.8.7,2.5.5,7.2,0,9.7-1,4.8-4.1,9.7-8.2,12.4l-13.8-5.6c-.3-.5,2.7-3,3.1-3.6,1.6-2.2,4.6-9.4,4.6-12.1v-6.1c1.1.2,1.9.5,3,.6Z"/>
    <path class="st16" d="M156.2,197c-.3,1.3-.6,4,.2,5.1s.7.2.7.3c.1.2,0,.6.7,1,1.3.8,4.3,1.4,6,2.1s5.7,2,7.5,3.3c3.3,2.3,2.4,4.3,7.7,6.8,8.7,4.1,18.9,7.7,28.3,9.5v3c-22.5,0-44.9,0-67.4,0l4.2-31c3.9.3,8.6-.7,12.2,0Z"/>
    <path class="st16" d="M133.2,193.1c1.9.8,3.7,2.4,5.7,3l-3.9,31.9c-8.3,0-16.7,0-25.1,0,.8-3,.8-6.2,1.2-9.2s.6-1.3.6-2.4,0-.6,0-.9c.4-.2.3-.8.3-1.2s0-.4,0-.6c.4-.2.3-.8.3-1.2s0-.6,0-.9c.5-.2.3-.8.3-1.2s0-.6,0-.9.5-1.7.6-1.8c1-1.1,1.1-4.7,1.2-6.7s-.3-7.7.3-8.1l18.5.2Z"/>
    <path class="st4" d="M200.3,174l1.1-2.4c.2-3.3,6.6-26.9,7.9-27.7s1.5,1,1.4,1.8c-.7,10.4-7,23.3-8.6,33.9h-.3c0-1.6-1.2-3.8-1.5-5.7Z"/>
    <path class="st4" d="M229.6,198.8c-.3.4-3-2-3.5-2.3-3.1-2.2-6.7-4.2-10.5-4.8,3.5,3.3,8,6.6,9.5,11.3-.2,0-.5,0-.7,0-.8-.3-5-5.1-6.2-6.1-3.1-2.6-8.6-5.9-12.5-6.9s-2.3.2-2.4-.9c.5-2.3,8.2-1,9.9-.6,4.4.9,9.6,3.2,13.1,6s4,3.5,3.3,4.3Z"/>
    <path class="st6" d="M188.4,100.3l-10.6,23.6c-1.3,1.2-3.5-1.8-4.5-2.7s-1.6-.8-1.6-.9c-.4-.5-.2-1.8-1.8-2.1-.1-.9.3-.7.8-.4s1.8,1.1,2.3,1.6,3.4,3.4,4,3l9.6-21.5h-5.8c-.1,0-1.3-1.3-1.4-1.6-1-2.2,0-4.4-3.4-1.7s-11.7,11.8-15.2,15.8-3.3,3.8-3.9,5-.5.9-.4,1.5c-.9.9-2.2,2.6-3,3.3s-.2.2-.3.3c-.2.2-1.4.5-1.5.6-.7,0-1.5-.9-1.8-1.5s.4,0,0-.6-.2-.2-.3-.3c-.2-.4-.4-1.2-.6-1.5.8,0,1,.3.9-.7-.2-1.8-.8-3.9-.9-5.7-.3-4.9.3-10.1,0-15.1-.6-.6-3.4,2.8-4,3.3l-8.8,16.3c0,.4,0,.6.4.4.8-.2,2.3-2,3.2-2.5s1.1-.4,1.7-.7c.9-.5,1.1-1.3,2.5-1.3-.1.2-.2.5-.3.6-.7.6-2.1,1.1-2.7,2.1-1.9.5-4.1,3.4-5.8,3.9s-.5-.3-.4-.7l8.6-17.5c1.4-.7,3.1-3.3,4.3-4.5s1.8-2,2.2-2.1.2,0,.3,0c0,.8-.3,1.5-.3,2.2-.4,7-.3,16.7,1.3,23.4s.3,2.1.9,1.8l8.6-11.3,18.1-18.8c0,.2.4.7.5,1.2.2,1.3.3,4.5,1.3,5.2s6,.3,7.8.4Z"/>
    <path class="st8" d="M90.9,189.8c.1,1.1.4,2.9.9,3.9s0,1,1.2.9c0,0,.2,0,.3,0,1.1.6,3.1.5,4.2-.3,0,0,.2,0,.3,0,1.6.3,3-2.2,4-2.4,2.3-.4,8.1,0,10.7,0s1.1.6,1.3.6l-.6,15.2c0,0-.6,1.6-.6,1.8-.5-.3-.3-1.2-.3-1.6.5-4.9,1.4-9.9.6-14.8h-9.7c-.3,0-.6-.5-1.4-.2s-1.8,1.4-2.4,1.7c-3.5,1.9-8.3,1.7-10.6-2s-1-3.9-2.4-2.4-2,7.6-1.8,9.9c.3,3.7,1.8,6.5,3.6,9.7-.6,0-1.2-1-1.4-1.4-3.9-6.5-3.7-13.3-.7-20.1,1.2.5,3.4,1.2,4.8,1.5Z"/>
    <path class="st8" d="M88.5,210.4l3.9,3.7c2.7,2,4.7,4,8.1,5s3.4.5,5,1.1c-6,.3-14.3-4.6-17-9.8Z"/>
    <path class="st8" d="M169.9,181.4c-1.1-.1-1.9-.4-3-.6v6.1c0,2.6-3,9.9-4.6,12.1s-3.4,3.1-3.1,3.6l13.8,5.6c4.1-2.7,7.1-7.7,8.2-12.4s.8-7.2,0-9.7-.8-.2-.6-.8c2,.2,2.7-.4,4.2-.6,4.2-.5,7-.6,10.7,1.7s4.1,3.6,5.2,3.3.5-2,.5-2.8c0-1.4,0-3,0-4.3s.7-1.7.6-3h.3c-.2,2.1.5,8.9-.1,10.1-1.1,2.3-5.2-1.6-6.3-2.3-4.6-2.9-8.4-2.3-13.5-1.5,1.9,7.8-.7,16-6.3,21.6s-3.3,1.3-.6,4.5,2.8,1.9,3.6,3.4c-5.3-2.5-4.4-4.5-7.7-6.8s-5.4-2.4-7.5-3.3-4.6-1.3-6-2.1-.5-.8-.7-1c1.2,0,3.9-2.4,4.1-3.4s-.2-.4-.2-.5c0-.3,1.4-1.4,1.6-1.8,3-4.7,4.1-11.6,3.2-17,0,0,.3-.2.7-.2.8,0,3.5.9,3.5,2Z"/>
    <path class="st6" d="M156.5,120c-.1-.7.1-1,.4-1.5.7-1.3,2.9-3.8,3.9-5,3.5-4,11.3-12.7,15.2-15.8s2.3-.5,3.4,1.7,1.3,1.6,1.4,1.6h5.8l-9.6,21.5c-.6.4-3.3-2.5-4-3s-1.7-1.2-2.3-1.6-.9-.5-.8.4c0,0-.2,0-.3,0-1.1.2-.6.7-1,1.1-1.4,1.6-2.2,3.7-2.6,4.2s-.7,0-1.1.5-.5,1.5-.9,2.1c-3.6,5.7-7.5,11.5-10.2,17.7s0,.2,0,.3-.2.3-.3.6,0,.2,0,.3-.2.1-.3.3,0,.6-.3.9-.5,0-.6,0,0,.7,0,.9,0,.2,0,.3l-1.5,2.3c-.5,1.1-.8,2.2-1.2,3.4s0,.2,0,.3c-1.3,1-1.4,3-1.8,4.5s0,.2,0,.3-.2.2-.3.6,0,.2,0,.3c-.8,0-1,3.5-1.8,2.7s-.3-2.8-.3-3.4c.4-4.1,2.2-10.5,3.1-14.8,1.4-6.7,3.2-13.3,4.6-20,.1-.1.2-.2.3-.3l15.1-6c.4-.4,0-.5-.2-.8-.3-.5-3.6-3.1-4-3.1-1.1.1-6.8,5.4-8,6.5Z"/>
    <polygon class="st6" points="142.1 153.4 149.3 157.1 146.7 164.8 144.9 164.8 142.1 153.4"/>
  </g>
</svg>
