<svg preserveAspectRatio="none" width="100%" height="100%" overflow="visible" style="display: block;" viewBox="0 0 600 201" fill="none" xmlns="http://www.w3.org/2000/svg">
<g id="Frame 427318998" clip-path="url(#clip0_0_49)">
<rect width="600" height="201" fill="#E8E8E8"/>
<path id="Vector 44" d="M345.616 148.491C340.694 151.176 339.837 155.949 340.023 158H453C451.658 149.946 443.306 147.746 439.577 147.932C433.313 136.746 420.934 137.678 415.527 139.542C413.663 134.695 406.914 125 394.834 125C382.753 125 376.004 133.949 374.14 138.424C363.401 137.081 358.48 144.576 357.361 148.491C355.497 147.373 350.538 145.807 345.616 148.491Z" fill="var(--fill-0, #DEDEDE)"/>
<g id="Group 1744">
<path id="path16" d="M297.858 200.98C298.487 200.991 299.116 201 299.748 201C302.449 201 305.12 200.894 307.758 200.697V148.8H297.858V200.98Z" fill="var(--fill-0, #8D9495)"/>
<path id="path18" d="M291.559 200.708C293.934 200.88 296.335 200.978 298.759 201V148.8H291.559V200.708Z" fill="var(--fill-0, #EDEBEB)"/>
<path id="path20" d="M229.582 150.363H367.308V146.902H229.582V150.363Z" fill="var(--fill-0, #D4D4D4)"/>
<path id="path22" d="M367.308 146.9V98.8151C367.308 84.0612 355.348 72.1008 340.594 72.1008H256.296V146.9H367.308Z" fill="var(--fill-0, #D4D4D4)"/>
<path id="path24" d="M256.296 146.9H367.308V103.188H256.296V146.9Z" fill="var(--fill-0, #C1C1C1)"/>
<path id="path26" d="M283.01 98.8151C283.01 84.0612 271.05 72.1008 256.296 72.1008C241.542 72.1008 229.582 84.0612 229.582 98.8151V146.9H283.01V98.8151Z" fill="var(--fill-0, #A9A9A9)"/>
<path id="path30" d="M256.296 72.1008C241.542 72.1008 229.582 84.0612 229.582 98.8151V146.9H283.01V98.8151C283.01 84.0612 271.05 72.1008 256.296 72.1008ZM256.296 76.192C268.771 76.192 278.919 86.3404 278.919 98.8151V142.809H233.673V98.8151C233.673 86.3404 243.822 76.192 256.296 76.192Z" fill="var(--fill-0, #E9E9E9)"/>
<g id="Group 1746">
<path id="path34" d="M361.07 115.481H289.006C287.616 115.481 286.488 116.608 286.488 117.998H363.587C363.587 116.608 362.461 115.481 361.07 115.481Z" fill="var(--fill-0, #A9A9A9)"/>
<path id="path36" d="M361.07 121.797H289.006C287.616 121.797 286.488 122.924 286.488 124.314H363.587C363.587 122.924 362.461 121.797 361.07 121.797Z" fill="var(--fill-0, #A9A9A9)"/>
<path id="path38" d="M361.07 128.115H289.006C287.616 128.115 286.488 129.242 286.488 130.633H363.587C363.587 129.242 362.461 128.115 361.07 128.115Z" fill="var(--fill-0, #A9A9A9)"/>
<path id="path40" d="M361.07 134.433H289.006C287.616 134.433 286.488 135.561 286.488 136.951H363.587C363.587 135.561 362.461 134.433 361.07 134.433Z" fill="var(--fill-0, #A9A9A9)"/>
</g>
<path id="path42" d="M288.163 99.7589C288.163 100.513 287.552 101.125 286.797 101.125C286.043 101.125 285.431 100.513 285.431 99.7589C285.431 99.0045 286.043 98.3929 286.797 98.3929C287.552 98.3929 288.163 99.0045 288.163 99.7589Z" fill="var(--fill-0, #A9A9A9)"/>
<path id="path44" d="M299.089 99.7589C299.089 100.513 298.478 101.125 297.723 101.125C296.968 101.125 296.357 100.513 296.357 99.7589C296.357 99.0045 296.968 98.3929 297.723 98.3929C298.478 98.3929 299.089 99.0045 299.089 99.7589Z" fill="var(--fill-0, #A9A9A9)"/>
<path id="path46" d="M310.016 99.7589C310.016 100.513 309.405 101.125 308.65 101.125C307.895 101.125 307.284 100.513 307.284 99.7589C307.284 99.0045 307.895 98.3929 308.65 98.3929C309.405 98.3929 310.016 99.0045 310.016 99.7589Z" fill="var(--fill-0, #A9A9A9)"/>
<path id="path48" d="M320.943 99.7589C320.943 100.513 320.332 101.125 319.577 101.125C318.823 101.125 318.212 100.513 318.212 99.7589C318.212 99.0045 318.823 98.3929 319.577 98.3929C320.332 98.3929 320.943 99.0045 320.943 99.7589Z" fill="var(--fill-0, #A9A9A9)"/>
<path id="path50" d="M331.87 99.7589C331.87 100.513 331.258 101.125 330.504 101.125C329.75 101.125 329.138 100.513 329.138 99.7589C329.138 99.0045 329.75 98.3929 330.504 98.3929C331.258 98.3929 331.87 99.0045 331.87 99.7589Z" fill="var(--fill-0, #A9A9A9)"/>
<path id="path52" d="M342.797 99.7589C342.797 100.513 342.185 101.125 341.431 101.125C340.677 101.125 340.065 100.513 340.065 99.7589C340.065 99.0045 340.677 98.3929 341.431 98.3929C342.185 98.3929 342.797 99.0045 342.797 99.7589Z" fill="var(--fill-0, #A9A9A9)"/>
<path id="path54" d="M353.723 99.7589C353.723 100.513 353.112 101.125 352.357 101.125C351.603 101.125 350.991 100.513 350.991 99.7589C350.991 99.0045 351.603 98.3929 352.357 98.3929C353.112 98.3929 353.723 99.0045 353.723 99.7589Z" fill="var(--fill-0, #A9A9A9)"/>
<path id="path56" d="M364.65 99.7589C364.65 100.513 364.039 101.125 363.284 101.125C362.53 101.125 361.918 100.513 361.918 99.7589C361.918 99.0045 362.53 98.3929 363.284 98.3929C364.039 98.3929 364.65 99.0045 364.65 99.7589Z" fill="var(--fill-0, #A9A9A9)"/>
<path id="path58" d="M288.163 105.986C288.163 106.74 287.552 107.352 286.797 107.352C286.043 107.352 285.431 106.74 285.431 105.986C285.431 105.231 286.043 104.62 286.797 104.62C287.552 104.62 288.163 105.231 288.163 105.986Z" fill="var(--fill-0, #D4D4D4)"/>
<path id="path60" d="M299.089 105.986C299.089 106.74 298.478 107.352 297.723 107.352C296.968 107.352 296.357 106.74 296.357 105.986C296.357 105.231 296.968 104.62 297.723 104.62C298.478 104.62 299.089 105.231 299.089 105.986Z" fill="var(--fill-0, #D4D4D4)"/>
<path id="path62" d="M310.016 105.986C310.016 106.74 309.405 107.352 308.65 107.352C307.895 107.352 307.284 106.74 307.284 105.986C307.284 105.231 307.895 104.62 308.65 104.62C309.405 104.62 310.016 105.231 310.016 105.986Z" fill="var(--fill-0, #D4D4D4)"/>
<path id="path64" d="M320.943 105.986C320.943 106.74 320.332 107.352 319.577 107.352C318.823 107.352 318.212 106.74 318.212 105.986C318.212 105.231 318.823 104.62 319.577 104.62C320.332 104.62 320.943 105.231 320.943 105.986Z" fill="var(--fill-0, #D4D4D4)"/>
<path id="path66" d="M331.87 105.986C331.87 106.74 331.258 107.352 330.504 107.352C329.75 107.352 329.138 106.74 329.138 105.986C329.138 105.231 329.75 104.62 330.504 104.62C331.258 104.62 331.87 105.231 331.87 105.986Z" fill="var(--fill-0, #D4D4D4)"/>
<path id="path68" d="M342.797 105.986C342.797 106.74 342.185 107.352 341.431 107.352C340.677 107.352 340.065 106.74 340.065 105.986C340.065 105.231 340.677 104.62 341.431 104.62C342.185 104.62 342.797 105.231 342.797 105.986Z" fill="var(--fill-0, #D4D4D4)"/>
<path id="path70" d="M353.723 105.986C353.723 106.74 353.112 107.352 352.357 107.352C351.603 107.352 350.991 106.74 350.991 105.986C350.991 105.231 351.603 104.62 352.357 104.62C353.112 104.62 353.723 105.231 353.723 105.986Z" fill="var(--fill-0, #D4D4D4)"/>
<path id="path72" d="M364.65 105.986C364.65 106.74 364.039 107.352 363.284 107.352C362.53 107.352 361.918 106.74 361.918 105.986C361.918 105.231 362.53 104.62 363.284 104.62C364.039 104.62 364.65 105.231 364.65 105.986Z" fill="var(--fill-0, #D4D4D4)"/>
<path id="path74" d="M288.163 143.798C288.163 144.552 287.552 145.164 286.797 145.164C286.043 145.164 285.431 144.552 285.431 143.798C285.431 143.044 286.043 142.432 286.797 142.432C287.552 142.432 288.163 143.044 288.163 143.798Z" fill="var(--fill-0, #D4D4D4)"/>
<path id="path76" d="M299.089 143.798C299.089 144.552 298.478 145.164 297.723 145.164C296.968 145.164 296.357 144.552 296.357 143.798C296.357 143.044 296.968 142.432 297.723 142.432C298.478 142.432 299.089 143.044 299.089 143.798Z" fill="var(--fill-0, #D4D4D4)"/>
<path id="path78" d="M310.016 143.798C310.016 144.552 309.405 145.164 308.65 145.164C307.895 145.164 307.284 144.552 307.284 143.798C307.284 143.044 307.895 142.432 308.65 142.432C309.405 142.432 310.016 143.044 310.016 143.798Z" fill="var(--fill-0, #D4D4D4)"/>
<path id="path80" d="M320.943 143.798C320.943 144.552 320.332 145.164 319.577 145.164C318.823 145.164 318.212 144.552 318.212 143.798C318.212 143.044 318.823 142.432 319.577 142.432C320.332 142.432 320.943 143.044 320.943 143.798Z" fill="var(--fill-0, #D4D4D4)"/>
<path id="path82" d="M331.87 143.798C331.87 144.552 331.258 145.164 330.504 145.164C329.75 145.164 329.138 144.552 329.138 143.798C329.138 143.044 329.75 142.432 330.504 142.432C331.258 142.432 331.87 143.044 331.87 143.798Z" fill="var(--fill-0, #D4D4D4)"/>
<path id="path84" d="M342.797 143.798C342.797 144.552 342.185 145.164 341.431 145.164C340.677 145.164 340.065 144.552 340.065 143.798C340.065 143.044 340.677 142.432 341.431 142.432C342.185 142.432 342.797 143.044 342.797 143.798Z" fill="var(--fill-0, #D4D4D4)"/>
<path id="path86" d="M353.723 143.798C353.723 144.552 353.112 145.164 352.357 145.164C351.603 145.164 350.991 144.552 350.991 143.798C350.991 143.044 351.603 142.432 352.357 142.432C353.112 142.432 353.723 143.044 353.723 143.798Z" fill="var(--fill-0, #D4D4D4)"/>
<path id="path88" d="M364.65 143.798C364.65 144.552 364.039 145.164 363.284 145.164C362.53 145.164 361.918 144.552 361.918 143.798C361.918 143.044 362.53 142.432 363.284 142.432C364.039 142.432 364.65 143.044 364.65 143.798Z" fill="var(--fill-0, #D4D4D4)"/>
<g id="Group 1745">
<path id="path92" d="M316.803 44.4766H292.148V30.0006H316.803L311.802 37.2382L316.803 44.4766Z" fill="var(--fill-0, #66A6FF)"/>
<path id="path94" d="M293.516 92.0996H290.369V30.0006H293.516V92.0996Z" fill="var(--fill-0, #66A6FF)"/>
<path id="path90" d="M297.394 92.2042C297.394 95.1013 295.045 97.4492 292.149 97.4492C289.252 97.4492 286.904 95.1013 286.904 92.2042C286.904 89.3074 289.252 86.9591 292.149 86.9591C295.045 86.9591 297.394 89.3074 297.394 92.2042Z" fill="var(--fill-0, #E9E9E9)"/>
</g>
<path id="path96" d="M207.858 133.758H271.125V97.2013H207.858V133.758Z" fill="var(--fill-0, #99C4FF)"/>
<path id="path98" d="M239.492 119.256L271.125 97.2019H207.858L239.492 119.256Z" fill="var(--fill-0, #66A6FF)"/>
<path id="path100" d="M239.492 115.48L271.125 97.2019H207.858L239.492 115.48Z" fill="var(--fill-0, #CCE1FF)"/>
<path id="path102" d="M278.919 142.811H256.296V133.759H271.125V97.2024H256.248C255.796 89.6267 252.182 82.9064 246.712 78.3301C249.556 76.9946 252.719 76.2302 256.054 76.195H256.058C256.068 76.1947 256.078 76.1947 256.089 76.1947C256.094 76.1943 256.098 76.1943 256.103 76.1943C256.109 76.1943 256.115 76.1943 256.121 76.1943C256.129 76.1943 256.135 76.194 256.143 76.194C256.146 76.194 256.15 76.194 256.154 76.194C256.163 76.194 256.173 76.194 256.182 76.194C256.185 76.194 256.187 76.194 256.19 76.194C256.2 76.1937 256.21 76.1937 256.22 76.1937C256.222 76.1937 256.226 76.1937 256.226 76.1937C256.236 76.1937 256.248 76.1937 256.258 76.1937H256.262C256.274 76.1937 256.285 76.1937 256.296 76.1937C268.771 76.1937 278.919 86.3421 278.919 98.8168V142.811Z" fill="var(--fill-0, #999999)"/>
<path id="path104" d="M256.055 76.195C256.056 76.195 256.057 76.195 256.058 76.195C256.057 76.195 256.056 76.195 256.055 76.195ZM256.089 76.1947C256.094 76.1947 256.099 76.1943 256.103 76.1943C256.098 76.1943 256.094 76.1943 256.089 76.1947ZM256.121 76.1943C256.129 76.1943 256.136 76.194 256.143 76.194C256.136 76.194 256.129 76.1943 256.121 76.1943ZM256.154 76.194C256.163 76.194 256.173 76.194 256.182 76.194C256.173 76.194 256.163 76.194 256.154 76.194ZM256.19 76.194C256.2 76.1937 256.21 76.1937 256.22 76.1937C256.21 76.1937 256.2 76.1937 256.19 76.194ZM256.227 76.1937C256.237 76.1937 256.248 76.1937 256.258 76.1937C256.248 76.1937 256.237 76.1937 256.227 76.1937Z" fill="var(--fill-0, #D4D4D4)"/>
<path id="path106" d="M271.125 133.758H256.296V107.54L271.125 97.2013V133.758Z" fill="var(--fill-0, #66A6FF)"/>
<path id="path108" d="M256.296 107.541V105.771L271.125 97.2024L256.296 107.541Z" fill="var(--fill-0, #3389FF)"/>
<path id="path110" d="M256.296 105.77V98.8151C256.296 98.2729 256.28 97.735 256.248 97.2007H271.125L256.296 105.77Z" fill="var(--fill-0, #99C4FF)"/>
<path id="path112" d="M307.566 171.137L298.445 163.591V150.363H307.566V171.137Z" fill="var(--fill-0, #6F7579)"/>
<path id="path114" d="M298.445 163.59L291.429 157.785V150.362H298.445V163.59Z" fill="var(--fill-0, #B9B9B7)"/>
</g>
<circle id="Ellipse 2" cx="74" cy="82" r="5" stroke="var(--stroke-0, #D9D9D9)" stroke-width="2"/>
<circle id="Ellipse 3" cx="202" cy="31" r="5" stroke="var(--stroke-0, #D9D9D9)" stroke-width="2"/>
<circle id="Ellipse 4" cx="459" cy="81" r="5" stroke="var(--stroke-0, #D9D9D9)" stroke-width="2"/>
<circle id="Ellipse 5" cx="181" cy="175" r="5" stroke="var(--stroke-0, #D9D9D9)" stroke-width="2"/>
<circle id="Ellipse 6" cx="536" cy="145" r="5" stroke="var(--stroke-0, #D9D9D9)" stroke-width="2"/>
<path id="Vector 44_2" d="M-2.9793 140C-7.3793 142.4 -8.14597 146.667 -7.9793 148.5H93.0205C91.8205 141.3 84.3538 139.333 81.0205 139.5C75.4205 129.5 64.3538 130.333 59.5205 132C57.8538 127.667 51.8205 119 41.0205 119C30.2205 119 24.1872 127 22.5205 131C12.9205 129.8 8.52051 136.5 7.52051 140C5.8539 139 1.4207 137.6 -2.9793 140Z" fill="var(--fill-0, #DEDEDE)"/>
<path id="Vector 45" d="M515.021 81.9999C510.621 84.3999 509.854 88.6666 510.021 90.4999H560.521H611.021C609.821 83.2999 602.354 81.3333 599.021 81.5C593.421 71.5 582.354 72.3333 577.521 74C575.854 69.6667 569.821 61 559.021 61C548.221 61 542.187 68.9999 540.521 72.9999C530.921 71.7999 526.521 78.4999 525.521 81.9999C523.854 80.9999 519.421 79.5999 515.021 81.9999Z" fill="var(--fill-0, #DEDEDE)"/>
</g>
<defs>
<clipPath id="clip0_0_49">
<rect width="600" height="201" fill="white"/>
</clipPath>
</defs>
</svg>
